# AST/ASF file generated using VICON BodyLanguage
# -----------------------------------------------
:version 1.10
:name VICON
:units
  mass 1.0
  length 0.45
  angle deg
:documentation
   .ast/.asf automatically generated from VICON data using
   VICON BodyBuilder and BodyLanguage model FoxedUp or BRILLIANT.MOD
:root
   order TX TY TZ RX RY RZ
   axis XYZ
   position 0 0 0  
   orientation 0 0 0 
:bonedata
  begin
     id 1 
     name lhipjoint
     direction 0.567149 -0.783011 0.255413 
     length 2.28399 
     axis 0 0 0  XYZ
  end
  begin
     id 2 
     name lfemur
     direction 0.34202 -0.939693 0  
     length 7.34031  
     axis 0 0 20  XYZ
    dof rx ry rz
    limits (-160.0 20.0)
           (-70.0 70.0)
           (-60.0 70.0)
  end
  begin
     id 3 
     name ltibia
     direction 0.34202 -0.939693 0   
     length 6.9833   
     axis 0 0 20   XYZ
    dof rx
    limits (-10.0 170.0)
  end
  begin
     id 4 
     name lfoot
     direction 0.136498 -0.375025 0.91691   
     length 2.33665   
     axis -90 7.62852e-016 20   XYZ
    dof rx rz
    limits (-45.0 90.0)
           (-70.0 20.0)
  end
  begin
     id 5 
     name ltoes
     direction 1.5367e-011 -4.21617e-011 1   
     length 1.15039   
     axis -90 7.62852e-016 20   XYZ
    dof rx
    limits (-90.0 20.0)
  end
  begin
     id 6 
     name rhipjoint
     direction -0.602854 -0.758518 0.247423   
     length 2.35775  
     axis 0 0 0  XYZ 
  end
  begin
     id 7 
     name rfemur
     direction -0.34202 -0.939693 0   
     length 7.43932   
     axis 0 0 -20   XYZ
    dof rx ry rz
    limits (-160.0 20.0)
           (-70.0 70.0)
           (-70.0 60.0)
  end
  begin
     id 8 
     name rtibia
     direction -0.34202 -0.939693 0   
     length 7.11893   
     axis 0 0 -20   XYZ
    dof rx
    limits (-10.0 170.0)
 end
 begin
     id 9 
     name rfoot
     direction -0.131771 -0.362037 0.922803   
     length 2.53019  
     axis -90 -7.62852e-016 -20   XYZ
    dof rx rz
    limits (-45.0 90.0)
           (-20.0 70.0)
  end
  begin
     id 10 
     name rtoes
     direction -1.53733e-011 -4.21932e-011 1   
     length 1.24596   
     axis -90 -7.62852e-016 -20   XYZ
    dof rx
    limits (-90.0 20.0)
  end
  begin
     id 11 
     name lowerback
     direction 0.0235427 0.999023 -0.0374125   
     length 2.21768   
     axis 0 0 0   XYZ
    dof rx ry rz
    limits (-20.0 45.0)
           (-30.0 30.0)
           (-30.0 30.0)
  end
  begin
     id 12 
     name upperback
     direction 0.0302156 0.996818 -0.073759   
     length 2.20352   
     axis 0 0 0   XYZ
    dof rx ry rz
    limits (-20.0 45.0)
           (-30.0 30.0)
           (-30.0 30.0)
  end
  begin
     id 13 
     name thorax
     direction 0.0187169 0.998235 -0.0563532   
     length 2.22103   
     axis 0 0 0   XYZ
    dof rx ry rz
    limits (-20.0 45.0)
           (-30.0 30.0)
           (-30.0 30.0)
  end
  begin
     id 14 
     name lowerneck
     direction -0.119528 0.987423 0.103481   
     length 1.72948   
     axis 0 0 0   XYZ
    dof rx ry rz
    limits (-20.0 45.0)
           (-30.0 30.0)
           (-30.0 30.0)
  end
  begin
     id 15 
     name upperneck
     direction 0.248049 0.963095 -0.104496   
     length 1.74979   
     axis 0 0 0   XYZ
    dof rx ry rz
    limits (-20.0 45.0)
           (-30.0 30.0)
           (-30.0 30.0)
  end
  begin
     id 16
     name head
     direction 0.0903589 0.994284 -0.056876  
     length 1.78268  
     axis 0 0 0   XYZ
    dof rx ry rz
    limits (-20.0 45.0)
           (-30.0 30.0)
           (-30.0 30.0)
  end
  begin
     id 17 
     name lclavicle
     direction 0.946008 0.242039 -0.215608  
     length 3.80783  
     axis 0 0 0   XYZ
    dof ry rz
    limits (-20.0 10.0)
           (0.0 20.0)
  end
  begin
     id 18 
     name lhumerus
     direction 1 -4.48991e-011 -2.25695e-027   
     length 4.83125   
     axis 180 -30 -90   XYZ
    dof rx ry rz
    limits (-60.0 90.0)
           (-90.0 90.0)
           (-90.0 90.0)
  end
  begin
     id 19
     name lradius
     direction 0.999991 0.00366712 -0.00211721   
     length 3.00391   
     axis 180 -30 -90   XYZ
    dof rx
    limits (-10.0 170.0)
  end
  begin
     id 20
     name lwrist
     direction 0.999991 0.00393016 -0.00141978   
     length 1.50195   
     axis -1.00488e-014 90 90   XYZ
    dof ry
    limits (-180.0 0.0)
 end
  begin
     id 21 
     name lhand
     direction 1 -4.49123e-011 2.72098e-026   
     length 1.2717   
     axis -1.73687e-014 90 90   XYZ
    dof rx rz
    limits (-90.0 90.0)
           (-45.0 45.0)
  end
  begin
     id 22 
     name lfingers
     direction 1 -4.48678e-011 5.4479e-026   
     length 1.02528   
     axis -3.47372e-014 90 90   XYZ
    dof rx
    limits (0.0 90.0)
  end
  begin
     id 23
     name lthumb
     direction 0.707107 -6.34851e-011 0.707107   
     length 1.4721   
     axis -90 45 -1.62303e-014   XYZ
    dof rx rz
    limits (-45.0 45.0)
           (-45.0 45.0)
  end
  begin
     id 24 
     name rclavicle
     direction -0.981723 0.189447 -0.0181673   
     length 3.74989  
     axis 0 0 0   XYZ 
    dof ry rz
    limits (-10.0 20.0)
           (-20.0 0.0)
  end
  begin
     id 25 
     name rhumerus
     direction -1 -4.48985e-011 2.38206e-027  
     length 4.61118   
     axis 180 30 90   XYZ
    dof rx ry rz
    limits (-90.0 60.0)
           (-90.0 90.0)
           (-90.0 90.0)
  end
  begin
     id 26 
     name rradius
     direction -1 -4.48977e-011 7.41019e-027   
     length 2.91491   
     axis 180 30 90   XYZ
    dof rx
    limits (-10.0 170.0)
  end
  begin
     id 27 
     name rwrist
     direction -1 -4.48549e-011 1.3624e-026   
     length 1.45745   
     axis -1.00488e-014 -90 -90   XYZ
    dof ry
    limits (-180.0 0.0)
  end
  begin
     id 28
     name rhand
     direction -1 -4.49107e-011 2.72109e-026   
     length 1.30769   
     axis -1.73687e-014 -90 -90   XYZ
    dof rx rz
    limits (-90.0 90.0)
           (-45.0 45.0)
  end
  begin
     id 29
     name rfingers
     direction -1 -4.48919e-011 5.44468e-026   
     length 1.05429   
     axis -3.47372e-014 -90 -90   XYZ
    dof rx
    limits (0.0 90.0)
  end
  begin
     id 30
     name rthumb
     direction -0.707107 -6.35315e-011 0.707107   
     length 1.51376   
     axis -90 -45 1.62303e-014   XYZ
    dof rx rz
    limits (-45.0 45.0)
           (-45.0 45.0)
  end
:hierarchy
  begin
    root lhipjoint rhipjoint lowerback
    lhipjoint lfemur
    lfemur ltibia
    ltibia lfoot
    lfoot ltoes
    rhipjoint rfemur
    rfemur rtibia
    rtibia rfoot
    rfoot rtoes
    lowerback upperback
    upperback thorax
    thorax lowerneck lclavicle rclavicle
    lowerneck upperneck
    upperneck head
    lclavicle lhumerus
    lhumerus lradius
    lradius lwrist
    lwrist lhand lthumb
    lhand lfingers
    rclavicle rhumerus
    rhumerus rradius
    rradius rwrist
    rwrist rhand rthumb
    rhand rfingers
  end

#!OML:ASF X:\für Bonn\!DataBase\2005_08_11_Bastian_Final\c3d\Bastian.ASF
:FULLY-SPECIFIED
:DEGREES
1
root 3.48941 14.7495 -2.21982 717.976 -0.598754 -5.15044
lowerback 18.7221 -2.05421 5.27931
upperback 4.5313 -1.58601 1.54894
thorax -5.67973 -0.829343 -0.971656
lowerneck -17.2991 -2.76323 0.0283049
upperneck -12.8633 -3.36016 6.34918
head -1.14183 -1.6974 1.88919
rclavicle -2.85986e-015 5.04416e-015
rhumerus -38.59 4.71741 -87.7031
rradius 46.2873
rwrist 2.36352
rhand -21.2627 20.2068
rfingers 7.12502
rthumb 5.12066 -9.71132
lclavicle -2.85986e-015 5.04416e-015
lhumerus -29.6732 7.60839 80.2859
lradius 44.9096
lwrist 190.553
lhand -24.9728 12.9754
lfingers 7.12502
lthumb 1.53784 42.9496
rfemur -39.1587 -5.18967 22.618
rtibia 78.4856
rfoot -28.7014 1.5044
rtoes -10.5329
lfemur -25.9023 -1.80379 -14.1309
ltibia 79.1428
lfoot -38.1278 -16.8815
ltoes 4.29694
2
root 3.45914 14.8429 -1.98069 718.095 -0.379894 -4.90999
lowerback 17.8241 -2.07419 4.92094
upperback 4.34349 -1.73766 1.48773
thorax -5.40538 -0.898147 -0.820591
lowerneck -17.4478 -2.60295 0.174797
upperneck -12.0779 -3.21882 6.16651
head -0.870743 -1.61197 1.79665
rclavicle 7.36124e-016 -5.09386e-015
rhumerus -39.1805 6.26995 -88.0683
rradius 49.357
rwrist 2.17558
rhand -21.5405 20.3231
rfingers 7.12502
rthumb 4.85246 -9.60132
lclavicle 7.36124e-016 -5.09386e-015
lhumerus -29.3992 6.53027 80.687
lradius 47.686
lwrist 192.037
lhand -25.7386 12.656
lfingers 7.12502
lthumb 0.798217 42.6342
rfemur -37.5504 -5.5042 22.3643
rtibia 77.4565
rfoot -29.1462 1.45001
rtoes -10.4696
lfemur -24.3271 -2.11801 -14.3594
ltibia 77.7847
lfoot -38.0749 -16.558
ltoes 3.15828
3
root 3.42843 14.963 -1.732 718.232 -0.285713 -4.70691
lowerback 16.7914 -2.06751 4.54957
upperback 4.08509 -1.85482 1.44817
thorax -5.12651 -0.951734 -0.652399
lowerneck -17.6349 -2.46117 0.0942182
upperneck -10.8081 -3.07632 6.25619
head -0.424596 -1.50316 1.83066
rclavicle -2.00151e-014 1.96424e-014
rhumerus -39.6953 7.80515 -88.3451
rradius 52.296
rwrist 2.26787
rhand -21.6758 20.3315
rfingers 7.12502
rthumb 4.72182 -9.59589
lclavicle -2.00151e-014 1.96424e-014
lhumerus -29.0547 5.38692 81.047
lradius 50.3631
lwrist 193.34
lhand -26.4603 11.9915
lfingers 7.12502
lthumb 0.101172 41.9712
rfemur -35.7615 -5.62163 22.158
rtibia 76.0531
rfoot -29.4239 1.5224
rtoes -10.5506
lfemur -22.5621 -2.29301 -14.5259
ltibia 75.9782
lfoot -37.5098 -16.3416
ltoes 2.46465
4
root 3.39709 15.1149 -1.47246 718.227 -0.328866 -4.64663
lowerback 15.7478 -2.03203 4.28308
upperback 3.82479 -1.90878 1.43544
thorax -4.83736 -0.97579 -0.530869
lowerneck -17.6506 -2.34153 -0.0433265
upperneck -9.35537 -2.96028 6.43964
head 0.0604623 -1.4024 1.91004
rclavicle -2.07544e-014 1.32937e-014
rhumerus -40.1547 9.24112 -88.5412
rradius 55.0327
rwrist 2.83251
rhand -21.3447 20.0398
rfingers 7.12502
rthumb 5.04148 -9.88018
lclavicle -2.07544e-014 1.32937e-014
lhumerus -28.7253 4.01494 81.3279
lradius 52.9677
lwrist 194.39
lhand -26.9611 13.1785
lfingers 7.12502
lthumb -0.382537 43.1579
rfemur -33.5637 -5.4432 22.1024
rtibia 74.2223
rfoot -29.4924 1.60739
rtoes -10.3765
lfemur -20.3671 -2.37107 -14.5217
ltibia 73.6811
lfoot -36.4152 -16.2094
ltoes 2.37927
5
root 3.36677 15.2971 -1.20201 718.213 -0.471796 -4.53786
lowerback 14.5638 -1.93933 4.03889
upperback 3.49701 -1.88904 1.32673
thorax -4.53963 -0.965022 -0.540995
lowerneck -17.1957 -2.24284 0.0323111
upperneck -8.01498 -2.90275 6.43661
head 0.427207 -1.34981 1.89461
rclavicle -3.02401e-014 -1.90833e-014
rhumerus -40.795 10.6115 -88.8114
rradius 57.6732
rwrist 3.43426
rhand -21.1524 20.2857
rfingers 7.12502
rthumb 5.22723 -9.62979
lclavicle -3.02401e-014 -1.90833e-014
lhumerus -28.4502 2.45244 81.4196
lradius 55.4686
lwrist 195.097
lhand -27.1815 15.7821
lfingers 7.12502
lthumb -0.595398 45.761
rfemur -31.1631 -5.03104 21.9956
rtibia 72.0108
rfoot -29.4453 1.69656
rtoes -10.3149
lfemur -17.9411 -2.3231 -14.5906
ltibia 70.9147
lfoot -34.8341 -15.9412
ltoes 2.20438
6
root 3.33461 15.5021 -0.918132 718.346 -0.552132 -4.28809
lowerback 12.987 -1.84763 3.61374
upperback 3.11706 -1.90659 1.21831
thorax -4.07264 -0.969838 -0.452382
lowerneck -16.308 -2.16269 0.116118
upperneck -6.89935 -2.85287 6.28938
head 0.643863 -1.31652 1.83418
rclavicle 2.37548e-014 -4.77083e-015
rhumerus -41.543 12.0262 -88.9978
rradius 60.2472
rwrist 4.14546
rhand -21.3328 21.531
rfingers 7.12502
rthumb 5.05304 -8.38878
lclavicle 2.37548e-014 -4.77083e-015
lhumerus -28.2766 1.03953 81.4074
lradius 58.4379
lwrist 195.033
lhand -27.3277 17.5362
lfingers 7.12502
lthumb -0.736584 47.5147
rfemur -28.7758 -4.4898 21.7643
rtibia 69.4782
rfoot -29.3611 1.81934
rtoes -10.1829
lfemur -15.5181 -2.3588 -14.8097
ltibia 67.7524
lfoot -32.8846 -15.5844
ltoes 1.9608
